<svg id="Camada_1" data-name="Camada 1" xmlns="http://www.w3.org/2000/svg" viewBox="0 0 500 500"><path d="M360.87,261.77a50.8,50.8,0,0,0-25.09-42.36,42.85,42.85,0,0,0,9.13-26.54V156a43,43,0,0,0-43-42.95H272l-44.1,0H139v335.5l155.38-61.77,34.4-13.66a50.6,50.6,0,0,0,32.1-47.27V263.29C360.91,262.8,360.89,262.28,360.87,261.77ZM320.54,352.3l-26.13,10.39L272,371.58l-44.1,17.53-22.4,8.9-44.09,17.53V135.45h66.49l44.1,0H302A20.57,20.57,0,0,1,322.51,156v36.84a20.45,20.45,0,0,1-13,19.1l-15.14,6.25v24.23l7.58-3.12c16.33-6.76,35.05,4.06,36.41,21.69,0,.52.07,1,.08,1.54l0,63.29A28.34,28.34,0,0,1,320.54,352.3Z" style="fill:#ceecf2"/><path d="M205.52,422.1V51.29h88.89v335.5Zm22.4-348.41V389.1L272,371.58V73.69Z" style="fill:#ceecf2"/></svg>